PathFileType	4	(X/Y/Z)	C:\Users\dbl\Desktop\20210112(1)\20210112\bx_n_10_1802.trc
DataRate	CameraRate	NumFrames	NumMarkers	Units	OrigDataRate	OrigDataStartFrame	OrigNumFrames
50.00	50.00	       8	43	mm	50.00	195	       518
Frame#	Time	Top.Head			R.Acromium			L.Acromium			Sternum			R.ASIS			L.ASIS			V.Sacral			R.Thigh.Upper			R.Thigh.Front			R.Thigh.Rear			R.Knee.Lat			R.Knee.Med			R.Shank.Upper			R.Shank.Front			R.Shank.Rear			R.Ankle.Lat			R.Midfoot.Lat			R.Toe.Lat			R.Toe.Tip			R.Toe.Med			R.Ankle.Med			R.Midfoot.Sup			R.Heel			L.Thigh.Upper			L.Thigh.Front			L.Thigh.Rear			L.Knee.Lat			L.Knee.Med			L.Shank.Upper			L.Shank.Front			L.Shank.Rear			L.Ankle.Lat			L.Midfoot.Lat			L.Toe.Lat			L.Toe.Tip			L.Toe.Med			L.Ankle.Med			L.Midfoot.Sup			L.Heel			origin1 front left			origin2 front right			origin 3 back right			origin 4 back leftt			
		X1	Y1	Z1	X2	Y2	Z2	X3	Y3	Z3	X4	Y4	Z4	X5	Y5	Z5	X6	Y6	Z6	X7	Y7	Z7	X8	Y8	Z8	X9	Y9	Z9	X10	Y10	Z10	X11	Y11	Z11	X12	Y12	Z12	X13	Y13	Z13	X14	Y14	Z14	X15	Y15	Z15	X16	Y16	Z16	X17	Y17	Z17	X18	Y18	Z18	X19	Y19	Z19	X20	Y20	Z20	X21	Y21	Z21	X22	Y22	Z22	X23	Y23	Z23	X24	Y24	Z24	X25	Y25	Z25	X26	Y26	Z26	X27	Y27	Z27	X28	Y28	Z28	X29	Y29	Z29	X30	Y30	Z30	X31	Y31	Z31	X32	Y32	Z32	X33	Y33	Z33	X34	Y34	Z34	X35	Y35	Z35	X36	Y36	Z36	X37	Y37	Z37	X38	Y38	Z38	X39	Y39	Z39	X40	Y40	Z40	X41	Y41	Z41	X42	Y42	Z42	X43	Y43	Z43	

195	3.880	-638.11871	93.39955	1823.19897	-638.34906	-87.84431	1520.03345	-657.53613	261.58041	1524.90442	-602.76257	84.57287	1321.21362	-681.06311	-29.78760	1061.39453	-691.94244	219.52031	1070.74561	-888.38531	73.14697	1054.33850	-734.14191	-89.30005	873.37970	-638.43140	-30.15931	821.94000	-726.48535	-72.02675	756.12811	-701.97369	-41.84692	613.80365	-670.60455	65.76889	580.53912	-701.42487	-39.01823	566.09564	-647.27637	5.78154	519.40210	-748.27838	-45.65797	486.72430	-755.79437	-12.31304	206.32603	-651.92993	-69.05871	160.08359	-610.43201	-78.69232	154.97124	-548.00134	-35.39441	162.37253	-594.09125	21.66471	168.96944	-708.42743	73.25199	216.20232	-666.41046	54.55180	159.07184	-785.64832	49.96358	176.45798	-753.06793	267.96201	877.11633	-637.90436	200.13458	838.44800	-724.87073	256.60782	746.10046	-721.76245	238.06866	639.43872	-668.74310	134.69467	583.47748	-708.97272	237.19522	578.76343	-654.17444	195.90910	536.83154	-749.40155	249.05815	504.31876	-766.31787	225.44295	205.97649	-659.80542	296.80139	159.84047	-623.57489	304.54684	159.70793	-556.60980	256.40167	165.38495	-592.23480	220.06076	173.55614	-709.04126	150.90172	214.74323	-673.67706	173.51201	157.02156	-793.12225	175.41695	184.86890	-528.14441	304.25064	146.70299	-517.41156	-72.67290	143.53119	-876.45026	-78.87867	141.82179	-882.44604	296.18204	144.75914	
196	3.900	-647.14355	93.12199	1827.34460	-643.78192	-88.37086	1524.70300	-663.82434	260.42789	1529.30029	-604.41779	84.04940	1326.24072	-675.75879	-30.38428	1062.43799	-688.99670	218.83560	1072.70288	-883.93750	71.67730	1055.20215	-731.08459	-90.08503	874.27966	-636.73480	-30.79864	821.44928	-726.04089	-72.48183	757.01300	-704.64240	-42.30872	614.06097	-673.51300	65.48269	580.62915	-704.20026	-39.36583	566.57324	-650.60150	5.29548	519.83533	-750.87152	-45.91886	486.72711	-756.19586	-12.57014	206.34668	-652.01306	-69.23664	159.86731	-610.42908	-78.76039	154.89229	-548.11438	-35.32389	162.33284	-594.17603	21.59015	169.19235	-708.87378	73.00135	216.39568	-666.46606	54.40931	159.26273	-785.79034	49.69333	176.37132	-751.64093	266.99286	878.23083	-637.19318	199.52609	837.90778	-726.19476	255.79355	747.01477	-725.60406	237.44365	640.12531	-672.84052	133.81786	583.77454	-713.15845	236.40627	579.13062	-657.97302	195.14224	537.49628	-752.85822	248.26648	504.37909	-766.56116	225.42722	205.98775	-659.80859	296.73611	159.83801	-623.59650	304.48135	159.73419	-556.69263	256.31821	165.60028	-592.29382	220.06927	173.59804	-709.13641	150.87939	215.11664	-673.74231	173.45705	157.17409	-793.29248	175.36716	184.74608	-528.14148	304.26303	146.68427	-517.44672	-72.70678	143.49150	-876.45184	-78.88725	141.81044	-882.46539	296.15991	144.74681	
197	3.920	-656.05048	92.90979	1830.83289	-649.21075	-88.78958	1528.80103	-669.89911	259.43887	1533.07739	-606.10638	83.48772	1330.64429	-670.79254	-30.90700	1063.32678	-686.24670	218.39661	1074.44714	-879.91730	70.28520	1055.82092	-728.04352	-90.81656	874.94611	-635.07971	-31.24643	820.84802	-725.38226	-72.93739	757.72778	-706.93079	-42.73711	614.24622	-676.00580	65.17145	580.63696	-706.59467	-39.70009	566.98248	-653.44281	4.80355	520.17670	-753.12653	-46.18511	486.66794	-756.61273	-12.83907	206.31239	-652.09674	-69.39931	159.66248	-610.41833	-78.82241	154.81715	-548.24994	-35.22470	162.36118	-594.24878	21.53193	169.40518	-709.24524	72.76212	216.57169	-666.54651	54.23626	159.42644	-785.93274	49.41617	176.27829	-750.33441	266.12311	879.12140	-636.54138	199.05647	837.32367	-727.45331	255.01889	747.73560	-729.19305	236.87131	640.69727	-676.53760	133.14700	583.93286	-717.00604	235.66129	579.39368	-661.45746	194.51611	538.08386	-756.06903	247.57085	504.40805	-766.75415	225.43779	205.96173	-659.80701	296.71396	159.80725	-623.63361	304.45544	159.76578	-556.80566	256.28522	165.76608	-592.31433	220.08427	173.66884	-709.27423	150.99614	215.45169	-673.80438	173.47246	157.37785	-793.41864	175.34099	184.65868	-528.14258	304.26874	146.66669	-517.51843	-72.69930	143.41188	-876.47382	-78.88679	141.82457	-882.50275	296.16223	144.74924	
198	3.940	-664.81342	92.77281	1833.77197	-654.51886	-89.08010	1532.33630	-675.85779	258.59225	1536.29675	-607.84052	82.91992	1334.52258	-666.34497	-31.43536	1064.13672	-683.51776	218.17537	1075.73206	-876.33978	69.00621	1056.28479	-725.06329	-91.45716	875.41931	-633.42242	-31.61051	820.18286	-724.65253	-73.36266	758.29663	-708.92200	-43.17638	614.42712	-678.16205	64.83302	580.62573	-708.88318	-39.93421	567.23981	-655.80304	4.38003	520.42236	-755.11188	-46.44398	486.60428	-757.02716	-13.14474	206.17506	-652.19086	-69.55225	159.47745	-610.39209	-78.88429	154.74469	-548.41565	-35.07944	162.47987	-594.29901	21.47446	169.58749	-709.56281	72.48096	216.74179	-666.65448	54.05374	159.57516	-786.10529	49.11569	176.15353	-749.11688	265.33496	879.84027	-635.76910	198.90521	836.67023	-728.67908	254.21159	748.29346	-732.56213	236.33740	641.20740	-679.82434	132.66019	583.99146	-720.60864	234.97536	579.61279	-664.69995	194.05164	538.63544	-759.11182	246.93288	504.42038	-766.92181	225.47229	205.93018	-659.81769	296.73361	159.75623	-623.68732	304.46246	159.77460	-556.92664	256.27457	165.89352	-592.33258	220.12866	173.76054	-709.40143	151.20476	215.72681	-673.83441	173.55595	157.64407	-793.51312	175.32277	184.58386	-528.14819	304.26865	146.64804	-517.61511	-72.68464	143.31421	-876.51715	-78.86649	141.87506	-882.53442	296.18573	144.76694	
199	3.960	-673.37195	92.71236	1836.25842	-659.65845	-89.27547	1535.36047	-681.83594	257.83600	1539.04492	-609.65552	82.40321	1338.00049	-662.46625	-31.96885	1064.82898	-680.73071	218.07175	1076.49182	-873.05908	67.86613	1056.63953	-722.20502	-91.99908	875.74792	-631.73145	-32.01978	819.51379	-723.94897	-73.75508	758.75256	-710.71222	-43.67510	614.63745	-680.07941	64.42657	580.60309	-711.22949	-40.04536	567.29993	-657.81299	3.99110	520.61310	-756.92291	-46.68625	486.59796	-757.40491	-13.50497	205.96028	-652.28595	-69.71684	159.31703	-610.35126	-78.95084	154.67697	-548.60376	-34.89393	162.66306	-594.32452	21.38968	169.76707	-709.86499	72.13121	216.91960	-666.78937	53.87572	159.76152	-786.33795	48.78870	175.99817	-747.96802	264.60330	880.42273	-634.75800	199.14214	835.95361	-729.86554	253.37555	748.70679	-735.70337	235.82712	641.72644	-682.73541	132.32430	584.00250	-724.03876	234.38629	579.84253	-667.76721	193.73096	539.11548	-762.05957	246.31442	504.44635	-767.09186	225.49562	205.92358	-659.85913	296.77969	159.68155	-623.73914	304.48486	159.75586	-557.04065	256.26065	165.99481	-592.35712	220.23003	173.86960	-709.49677	151.41173	215.96135	-673.80127	173.65492	157.94939	-793.58246	175.29054	184.50964	-528.16370	304.27588	146.63152	-517.71594	-72.70213	143.22798	-876.56311	-78.83221	141.94138	-882.53168	296.20779	144.78435	
200	3.980	-681.64856	92.68858	1838.35779	-664.65735	-89.43286	1537.99463	-687.91339	257.14804	1541.41711	-611.56909	81.98421	1341.18445	-659.07788	-32.37841	1065.26025	-677.91046	218.00146	1076.84998	-869.93219	66.90115	1056.91345	-719.48553	-92.47498	876.02075	-630.01886	-32.51906	818.85504	-723.25958	-74.14605	759.13922	-712.40662	-44.17900	614.84467	-681.83710	63.96157	580.54791	-713.62061	-40.08150	567.20972	-659.64648	3.59591	520.82397	-758.65442	-46.88042	486.65811	-757.72705	-13.90878	205.75989	-652.35248	-69.89227	159.20174	-610.30499	-79.01362	154.61476	-548.79541	-34.68504	162.85455	-594.33728	21.27517	169.97643	-710.18079	71.73818	217.08968	-666.94092	53.69934	160.02559	-786.63959	48.45644	175.82892	-746.85724	263.92169	880.90356	-633.54065	199.71936	835.16327	-730.99097	252.59898	749.00861	-738.59070	235.32158	642.27588	-685.29321	132.11824	584.01477	-727.33984	233.90884	580.08649	-670.66870	193.56668	539.50726	-764.95099	245.71979	504.51620	-767.28094	225.47697	205.94891	-659.94427	296.85434	159.56468	-623.78448	304.52042	159.70337	-557.14703	256.24469	166.07211	-592.38348	220.40878	173.98396	-709.57098	151.56613	216.16951	-673.72046	173.72464	158.24750	-793.63849	175.23639	184.44624	-528.18469	304.28680	146.63173	-517.80090	-72.74720	143.17813	-876.57715	-78.80875	141.97389	-882.49506	296.20834	144.78358	
201	4.000	-689.57367	92.64394	1840.12134	-669.54138	-89.56796	1540.34778	-694.04248	256.52490	1543.49939	-613.54425	81.69521	1344.14111	-656.03192	-32.48915	1065.29517	-675.13458	217.97050	1076.99792	-866.86908	66.13760	1057.09985	-716.83820	-92.89453	876.29443	-628.31311	-33.01804	818.16254	-722.52722	-74.54090	759.47369	-714.11505	-44.56005	614.98059	-683.50104	63.51342	580.44824	-715.95355	-40.12057	567.09467	-661.43262	3.24391	521.09924	-760.34235	-46.99318	486.74463	-757.99860	-14.30779	205.65021	-652.37384	-70.03999	159.15392	-610.26550	-79.06040	154.55420	-548.97992	-34.47913	162.98224	-594.35571	21.16177	170.19400	-710.50623	71.35378	217.24168	-667.08203	53.52511	160.35124	-786.94122	48.15555	175.64818	-745.74054	263.29382	881.31311	-632.24548	200.50171	834.27838	-732.03064	251.99226	749.25378	-741.21838	234.83273	642.81543	-687.51740	132.00941	584.07098	-730.51141	233.53204	580.31018	-673.37024	193.58859	539.85919	-767.75201	245.16548	504.62830	-767.48840	225.40128	205.98367	-660.06641	296.96747	159.39774	-623.83197	304.58377	159.60600	-557.26056	256.25302	166.12306	-592.42664	220.66219	174.07303	-709.63330	151.68617	216.36723	-673.63312	173.75449	158.52863	-793.70081	175.17262	184.40714	-528.19043	304.28000	146.65686	-517.86920	-72.77950	143.16592	-876.53583	-78.81951	141.93283	-882.45612	296.18774	144.76396	
202	4.020	-697.11310	92.55534	1841.60413	-674.28998	-89.64423	1542.44910	-700.06531	255.95547	1545.35742	-615.50623	81.56659	1346.87891	-653.18683	-32.24471	1064.93567	-672.48572	218.04205	1077.08643	-863.83472	65.54867	1057.15723	-714.18274	-93.23416	876.57159	-626.62280	-33.37439	817.40717	-721.72839	-74.88330	759.73669	-715.88708	-44.77556	615.03278	-685.16821	63.14532	580.32556	-718.13116	-40.22500	567.07507	-663.21594	3.01048	521.41815	-761.98206	-47.05059	486.81259	-758.23853	-14.63257	205.62054	-652.36029	-70.12219	159.16254	-610.23987	-79.09302	154.50433	-549.15460	-34.30238	163.00563	-594.38013	21.07619	170.36945	-710.81183	71.02352	217.37787	-667.18042	53.37451	160.68523	-787.10529	47.91263	175.44229	-744.58221	262.74701	881.66016	-630.99597	201.31183	833.32135	-732.92792	251.61833	749.48865	-743.58655	234.40302	643.29712	-689.44403	131.96999	584.20038	-733.47589	233.23296	580.46460	-675.83899	193.77252	540.20660	-770.38019	244.67365	504.75034	-767.69879	225.28580	205.99730	-660.20447	297.10916	159.20059	-623.88361	304.68698	159.47057	-557.39752	256.31747	166.15549	-592.50745	220.96069	174.12604	-709.67334	151.81665	216.57582	-673.56409	173.76370	158.83069	-793.76978	175.11891	184.38829	-528.17419	304.25104	146.68486	-517.92529	-72.77868	143.17030	-876.45197	-78.86453	141.82773	-882.44025	296.15604	144.73767	
